<svg id="Layer_1" data-name="Layer 1" xmlns="http://www.w3.org/2000/svg" viewBox="0 0 376.03 314.4"><defs><style>.cls-1,.cls-10,.cls-2,.cls-3,.cls-4,.cls-5,.cls-6,.cls-7,.cls-8{isolation:isolate;}.cls-2,.cls-3,.cls-4,.cls-5,.cls-6,.cls-7,.cls-8{font-size:73.31px;}.cls-10,.cls-2,.cls-3,.cls-4,.cls-5,.cls-6,.cls-7,.cls-8,.cls-9{fill:#fff;}.cls-10,.cls-2,.cls-3,.cls-4,.cls-5,.cls-6,.cls-7,.cls-8{font-family:KelsonSans-Regular, Kelson Sans;}.cls-3{letter-spacing:-0.09em;}.cls-4{letter-spacing:-0.03em;}.cls-5{letter-spacing:-0.02em;}.cls-6{letter-spacing:-0.01em;}.cls-7{letter-spacing:-0.04em;}.cls-8{letter-spacing:-0.03em;}.cls-10{font-size:41.38px;}</style></defs><title>white</title><g class="cls-1"><text class="cls-2" transform="translate(0 239.1)">S</text><text class="cls-3" transform="translate(41.57 239.1)">T</text><text class="cls-4" transform="translate(68.4 239.1)">A</text><text class="cls-5" transform="translate(106.82 239.1)">R</text><text class="cls-6" transform="translate(144.65 239.1)">a</text><text class="cls-7" transform="translate(182.48 239.1)">w</text><text class="cls-2" transform="translate(235.85 239.1)">a</text><text class="cls-8" transform="translate(274.27 239.1)">r</text><text class="cls-2" transform="translate(298.76 239.1)">ds</text></g><path class="cls-9" d="M185.22,132s-2.2,6.55-15.47,8-18.94-1.42-18.94-1.42,8.85-6.9,17.34-7.25a118.72,118.72,0,0,1,17.07.7" transform="translate(0 -0.03)"/><path class="cls-9" d="M185.22,132s1-6.87-10-14.44-17.28-7.78-17.28-7.78a33.73,33.73,0,0,0,12.48,14.82,101.64,101.64,0,0,0,14.84,7.4" transform="translate(0 -0.03)"/><path class="cls-9" d="M169.48,127.09a44.9,44.9,0,0,0-17-3.06,34.56,34.56,0,0,0-17.92,5.31A53.65,53.65,0,0,0,153,132.4c10.88,0,16.46-5.31,16.46-5.31" transform="translate(0 -0.03)"/><path class="cls-9" d="M156.94,120.58a44.88,44.88,0,0,0-5.43-16.38A34.62,34.62,0,0,0,138.32,91a54.13,54.13,0,0,0,6.12,17.67c5.2,9.57,12.53,11.93,12.53,11.93" transform="translate(0 -0.03)"/><path class="cls-9" d="M151.86,119.66a44.78,44.78,0,0,0-15.8-7,34.66,34.66,0,0,0-18.67,1A53.87,53.87,0,0,0,134.62,121c10.58,2.55,17.24-1.31,17.24-1.31" transform="translate(0 -0.03)"/><path class="cls-9" d="M143.06,111.76a45,45,0,0,0-11.89-12.51,34.68,34.68,0,0,0-17.59-6.33,54.17,54.17,0,0,0,13.07,13.39c8.78,6.44,16.41,5.45,16.41,5.45" transform="translate(0 -0.03)"/><path class="cls-9" d="M134.33,98.46a42.73,42.73,0,0,0,1.83-16.32A33,33,0,0,0,130,65.46a51.15,51.15,0,0,0-1.74,17.71c.69,10.33,6.08,15.29,6.08,15.29" transform="translate(0 -0.03)"/><path class="cls-9" d="M127.4,92.19a39,39,0,0,0-9.07-11.84,29.89,29.89,0,0,0-14.52-7,46.63,46.63,0,0,0,10,12.69c7,6.34,13.6,6.2,13.6,6.2" transform="translate(0 -0.03)"/><path class="cls-9" d="M123.46,79.13a38.9,38.9,0,0,0-4.33-14.27A30,30,0,0,0,108,53.16a46.71,46.71,0,0,0,4.91,15.4c4.28,8.37,10.55,10.57,10.55,10.57" transform="translate(0 -0.03)"/><path class="cls-9" d="M120.72,60a38.9,38.9,0,0,0-2.37-14.73,30,30,0,0,0-9.41-13.11,46.69,46.69,0,0,0,2.79,15.92c3.11,8.87,9,11.9,9,11.9" transform="translate(0 -0.03)"/><path class="cls-9" d="M123.37,47.41a39,39,0,0,0,3.38-14.53A29.91,29.91,0,0,0,123,17.18,46.85,46.85,0,0,0,119.51,33c-.48,9.39,3.86,14.44,3.86,14.44" transform="translate(0 -0.03)"/><path class="cls-9" d="M130.6,32.24a38.81,38.81,0,0,0,5.7-13.78,29.93,29.93,0,0,0-1.18-16.1,46.51,46.51,0,0,0-6,15c-2,9.19,1.46,14.87,1.46,14.87" transform="translate(0 -0.03)"/><path class="cls-9" d="M123.8,70.91a38.78,38.78,0,0,0,8.35-12.36,30,30,0,0,0,2.07-16A46.41,46.41,0,0,0,125.36,56c-3.81,8.6-1.56,14.86-1.56,14.86" transform="translate(0 -0.03)"/><path class="cls-9" d="M129.08,42a38.94,38.94,0,0,0,12.66-7.89,30,30,0,0,0,8.41-13.78,46.64,46.64,0,0,0-13.6,8.73c-7,6.31-7.47,12.94-7.47,12.94" transform="translate(0 -0.03)"/><path class="cls-9" d="M138.1,24.37a38.91,38.91,0,0,0,11.46-9.55A30,30,0,0,0,156,0a46.71,46.71,0,0,0-12.27,10.53c-6,7.2-5.62,13.84-5.62,13.84" transform="translate(0 -0.03)"/><path class="cls-9" d="M186.14,136.1c0,8.88-14.61,18.55-14.61,13.83s14.61-10.68,14.61-13.83" transform="translate(0 -0.03)"/><path class="cls-9" d="M194.61,136.1c0,8.88,14.61,18.55,14.61,13.83s-14.61-10.68-14.61-13.83" transform="translate(0 -0.03)"/><path class="cls-9" d="M195.53,132s2.2,6.55,15.47,8,18.94-1.45,18.94-1.45-8.85-6.9-17.34-7.25a118.72,118.72,0,0,0-17.07.7" transform="translate(0 -0.03)"/><path class="cls-9" d="M195.53,132s-1-6.87,10-14.44,17.33-7.78,17.33-7.78a33.73,33.73,0,0,1-12.48,14.82,101.64,101.64,0,0,1-14.84,7.4" transform="translate(0 -0.03)"/><path class="cls-9" d="M211.27,127.09a44.9,44.9,0,0,1,17-3.06,34.56,34.56,0,0,1,17.92,5.31,53.89,53.89,0,0,1-18.45,3.06c-10.89,0-16.46-5.31-16.46-5.31" transform="translate(0 -0.03)"/><path class="cls-9" d="M223.78,120.58a44.88,44.88,0,0,1,5.43-16.38A34.63,34.63,0,0,1,242.43,91a54.13,54.13,0,0,1-6.12,17.67c-5.2,9.57-12.53,11.93-12.53,11.93" transform="translate(0 -0.03)"/><path class="cls-9" d="M228.94,119.66a44.78,44.78,0,0,1,15.8-7,34.66,34.66,0,0,1,18.67,1A54.19,54.19,0,0,1,246.18,121c-10.58,2.55-17.24-1.31-17.24-1.31" transform="translate(0 -0.03)"/><path class="cls-9" d="M237.68,111.76a45.16,45.16,0,0,1,11.9-12.51,34.68,34.68,0,0,1,17.59-6.33,54.17,54.17,0,0,1-13.07,13.39c-8.78,6.44-16.42,5.45-16.42,5.45" transform="translate(0 -0.03)"/><path class="cls-9" d="M246.42,98.46a42.73,42.73,0,0,1-1.83-16.32,33,33,0,0,1,6.17-16.68,51.15,51.15,0,0,1,1.74,17.71c-.69,10.33-6.08,15.29-6.08,15.29" transform="translate(0 -0.03)"/><path class="cls-9" d="M253.35,92.19a38.71,38.71,0,0,1,9.06-11.84,29.93,29.93,0,0,1,14.53-7,46.62,46.62,0,0,1-10,12.68c-7,6.34-13.6,6.2-13.6,6.2" transform="translate(0 -0.03)"/><path class="cls-9" d="M257.28,79.13a38.9,38.9,0,0,1,4.33-14.27,30,30,0,0,1,11.13-11.7,46.46,46.46,0,0,1-4.9,15.4c-4.28,8.37-10.56,10.57-10.56,10.57" transform="translate(0 -0.03)"/><path class="cls-9" d="M260,60A38.9,38.9,0,0,1,262.4,45.3a30,30,0,0,1,9.46-13.09,46.7,46.7,0,0,1-2.8,15.92c-3.11,8.87-9,11.9-9,11.9" transform="translate(0 -0.03)"/><path class="cls-9" d="M257.38,47.41A39,39,0,0,1,254,32.88a30,30,0,0,1,3.79-15.7A46.6,46.6,0,0,1,261.23,33c.49,9.39-3.85,14.44-3.85,14.44" transform="translate(0 -0.03)"/><path class="cls-9" d="M250.15,32.24a38.81,38.81,0,0,1-5.7-13.78,29.93,29.93,0,0,1,1.18-16.1,46.51,46.51,0,0,1,6,15c2,9.19-1.45,14.87-1.45,14.87" transform="translate(0 -0.03)"/><path class="cls-9" d="M256.94,70.91a38.78,38.78,0,0,1-8.35-12.36,30,30,0,0,1-2.07-16A46.44,46.44,0,0,1,255.39,56c3.81,8.6,1.56,14.86,1.56,14.86" transform="translate(0 -0.03)"/><path class="cls-9" d="M251.67,42A38.94,38.94,0,0,1,239,34.14a30,30,0,0,1-8.41-13.78,46.64,46.64,0,0,1,13.6,8.73c7,6.31,7.47,12.94,7.47,12.94" transform="translate(0 -0.03)"/><path class="cls-9" d="M242.64,24.37a38.74,38.74,0,0,1-11.45-9.55A30,30,0,0,1,224.76,0,46.51,46.51,0,0,1,237,10.56c6,7.2,5.62,13.84,5.62,13.84" transform="translate(0 -0.03)"/><path class="cls-9" d="M195.18,34.54v18l-2.06,5H188l-2-5v-18A1.54,1.54,0,0,1,187.52,33h6.13a1.54,1.54,0,0,1,1.53,1.54" transform="translate(0 -0.03)"/><path class="cls-9" d="M173.29,40.18,186,52.54l2.06,5-3.59,3.59-5-2.06L167.14,46.33a1.53,1.53,0,0,1,0-2.15l4-4a1.53,1.53,0,0,1,2.15,0" transform="translate(0 -0.03)"/><path class="cls-9" d="M161.49,59h18l5,2v5.09l-5,2h-18A1.55,1.55,0,0,1,160,66.69V60.56A1.55,1.55,0,0,1,161.49,59" transform="translate(0 -0.03)"/><path class="cls-9" d="M166.81,80.91,179.5,68.22l5-2.06,3.59,3.59-2.06,5L173.3,87.14a1.55,1.55,0,0,1-2.12,0l-4.3-4a1.53,1.53,0,0,1,0-2.16l0,0" transform="translate(0 -0.03)"/><path class="cls-9" d="M186,92.72v-18l2-5h5.09l2.05,5v18a1.55,1.55,0,0,1-1.53,1.53h-6.13A1.55,1.55,0,0,1,186,92.72" transform="translate(0 -0.03)"/><path class="cls-9" d="M207.87,87,195.18,74.67l-2.06-5,3.59-3.59,5,2,12.36,12.7a1.54,1.54,0,0,1,0,2.16l-4,4a1.54,1.54,0,0,1-2.16,0" transform="translate(0 -0.03)"/><path class="cls-9" d="M219.67,68.22h-18l-5-2V61.08l5-2h18a1.52,1.52,0,0,1,1.53,1.53v6.13a1.52,1.52,0,0,1-1.53,1.53" transform="translate(0 -0.03)"/><path class="cls-9" d="M214,46.34,201.67,59l-5,2.06-3.59-3.59,2.06-5,12.69-12.36a1.54,1.54,0,0,1,2.16,0l4,4a1.54,1.54,0,0,1,0,2.16" transform="translate(0 -0.03)"/><text class="cls-10" transform="translate(146.14 303.93)">2020</text></svg>